<svg width="513" height="513" viewBox="0 0 513 513" fill="none" xmlns="http://www.w3.org/2000/svg">
<path d="M256.546 320.739C291.893 320.739 320.546 292.085 320.546 256.739C320.546 221.393 291.893 192.739 256.546 192.739C221.2 192.739 192.546 221.393 192.546 256.739C192.546 292.085 221.2 320.739 256.546 320.739Z" fill="black"/>
<path d="M491.386 239.339C464.926 198.419 430.596 163.659 392.116 138.809C349.546 111.289 302.546 96.7391 256.206 96.7391C213.686 96.7391 171.876 108.889 131.936 132.849C91.2063 157.279 54.3063 192.969 22.2563 238.919C18.6382 244.112 16.6455 250.264 16.5315 256.592C16.4176 262.92 18.1875 269.139 21.6163 274.459C48.0263 315.789 82.0163 350.599 119.896 375.109C162.546 402.739 208.446 416.739 256.206 416.739C302.916 416.739 350.016 402.309 392.406 375.019C430.866 350.249 465.126 315.359 491.486 274.099C494.797 268.903 496.547 262.866 496.53 256.704C496.512 250.543 494.727 244.516 491.386 239.339ZM256.546 352.739C237.559 352.739 218.999 347.109 203.212 336.56C187.424 326.012 175.12 311.018 167.854 293.477C160.588 275.935 158.687 256.633 162.391 238.01C166.095 219.388 175.238 202.283 188.664 188.857C202.09 175.431 219.195 166.288 237.818 162.584C256.44 158.88 275.742 160.781 293.284 168.047C310.826 175.313 325.819 187.617 336.367 203.404C346.916 219.192 352.546 237.752 352.546 256.739C352.517 282.191 342.394 306.592 324.396 324.589C306.399 342.586 281.998 352.71 256.546 352.739Z" fill="black"/>
</svg>
