<svg width="512" height="512" viewBox="0 0 512 512" fill="none" xmlns="http://www.w3.org/2000/svg">
<path d="M432 448C429.898 448.003 427.817 447.591 425.876 446.786C423.935 445.981 422.172 444.8 420.69 443.31L68.6899 91.31C65.816 88.285 64.2374 84.257 64.2909 80.0848C64.3443 75.9127 66.0254 71.9264 68.9758 68.976C71.9263 66.0255 75.9125 64.3444 80.0847 64.291C84.2569 64.2376 88.2849 65.8161 91.3099 68.69L443.31 420.69C445.546 422.928 447.069 425.778 447.685 428.881C448.302 431.983 447.985 435.199 446.775 438.122C445.565 441.045 443.515 443.543 440.885 445.301C438.255 447.059 435.163 447.999 432 448ZM248 315.85L196.21 264.06C195.913 263.766 195.532 263.572 195.119 263.505C194.706 263.439 194.283 263.504 193.909 263.69C193.535 263.877 193.229 264.176 193.034 264.545C192.838 264.915 192.764 265.336 192.82 265.75C194.911 279.186 201.22 291.61 210.835 301.225C220.45 310.84 232.874 317.149 246.31 319.24C246.724 319.296 247.145 319.222 247.515 319.026C247.884 318.831 248.183 318.525 248.37 318.151C248.556 317.777 248.621 317.354 248.554 316.941C248.488 316.528 248.294 316.147 248 315.85ZM264 196.15L315.87 248C316.166 248.298 316.548 248.496 316.963 248.565C317.378 248.633 317.804 248.57 318.18 248.382C318.556 248.195 318.864 247.894 319.06 247.522C319.256 247.15 319.329 246.726 319.27 246.31C317.184 232.855 310.871 220.414 301.243 210.786C291.616 201.159 279.174 194.846 265.72 192.76C265.303 192.696 264.877 192.765 264.502 192.957C264.127 193.15 263.822 193.456 263.631 193.832C263.441 194.208 263.374 194.634 263.44 195.051C263.506 195.467 263.702 195.852 264 196.15Z" fill="black"/>
<path d="M491 273.36C494.311 268.164 496.061 262.127 496.043 255.965C496.025 249.804 494.24 243.777 490.9 238.6C464.44 197.68 430.11 162.92 391.63 138.07C349 110.55 302 96 255.68 96C231.261 96.0335 207.008 100.015 183.86 107.79C183.212 108.005 182.63 108.383 182.17 108.887C181.709 109.391 181.385 110.005 181.229 110.669C181.072 111.334 181.089 112.028 181.276 112.684C181.464 113.341 181.816 113.938 182.3 114.42L229.54 161.66C230.031 162.152 230.641 162.507 231.311 162.691C231.981 162.875 232.687 162.882 233.36 162.71C249.372 158.808 266.12 159.094 281.99 163.54C297.86 167.987 312.318 176.444 323.972 188.098C335.626 199.752 344.083 214.21 348.53 230.08C352.976 245.95 353.262 262.697 349.36 278.71C349.19 279.382 349.197 280.086 349.382 280.754C349.566 281.422 349.92 282.03 350.41 282.52L418.36 350.52C419.067 351.228 420.014 351.646 421.013 351.69C422.013 351.735 422.993 351.403 423.76 350.76C449.916 328.466 472.581 302.376 491 273.36ZM256 352C241.467 352.001 227.124 348.702 214.052 342.353C200.98 336.004 189.52 326.769 180.536 315.347C171.552 303.924 165.279 290.61 162.189 276.41C159.1 262.209 159.274 247.493 162.7 233.37C162.87 232.698 162.862 231.994 162.678 231.326C162.494 230.658 162.14 230.05 161.65 229.56L94.8099 162.69C94.1012 161.98 93.1518 161.563 92.1498 161.52C91.1478 161.478 90.1664 161.813 89.3999 162.46C65.0099 183.27 42.3999 208.59 21.7299 238.18C18.1118 243.373 16.1191 249.525 16.0052 255.853C15.8912 262.181 17.6611 268.4 21.0899 273.72C47.4999 315.05 81.4799 349.86 119.37 374.37C162.06 402 207.92 416 255.68 416C280.345 415.934 304.851 412.037 328.32 404.45C328.974 404.241 329.563 403.868 330.03 403.365C330.498 402.863 330.828 402.249 330.99 401.582C331.152 400.915 331.139 400.218 330.954 399.557C330.768 398.897 330.415 398.295 329.93 397.81L282.46 350.35C281.97 349.86 281.362 349.506 280.694 349.322C280.026 349.138 279.322 349.13 278.65 349.3C271.234 351.097 263.63 352.003 256 352Z" fill="black"/>
</svg>
