<svg width="29" height="28" viewBox="0 0 29 28" fill="none" xmlns="http://www.w3.org/2000/svg">
<g clip-path="url(#clip0_357_1644)">
<path d="M28.0373 14.433C28.0373 13.501 27.9617 12.5639 27.8005 11.647H14.8679V16.9268H22.2738C21.9665 18.6296 20.979 20.136 19.5331 21.0932V24.5191H23.9515C26.546 22.1311 28.0373 18.6045 28.0373 14.433Z" fill="#4285F4"/>
<path d="M14.8679 27.8291C18.5658 27.8291 21.6843 26.6149 23.9565 24.5191L19.5381 21.0933C18.3089 21.9296 16.7219 22.4032 14.873 22.4032C11.296 22.4032 8.26309 19.99 7.17488 16.7455H2.61548V20.2771C4.94304 24.9071 9.6838 27.8291 14.8679 27.8291V27.8291Z" fill="#34A853"/>
<path d="M7.16984 16.7455C6.59551 15.0426 6.59551 13.1987 7.16984 11.4959V7.96423H2.61549C0.670815 11.8385 0.670815 16.4029 2.61549 20.2771L7.16984 16.7455V16.7455Z" fill="#FBBC04"/>
<path d="M14.8679 5.83311C16.8227 5.80288 18.7119 6.53843 20.1276 7.88861L24.0421 3.97408C21.5634 1.64652 18.2736 0.36687 14.8679 0.407174C9.6838 0.407174 4.94304 3.32922 2.61548 7.96419L7.16984 11.4958C8.25301 8.24631 11.2909 5.83311 14.8679 5.83311V5.83311Z" fill="#EA4335"/>
</g>
<defs>
<clipPath id="clip0_357_1644">
<rect width="27.4219" height="27.4219" fill="white" transform="translate(0.882812 0.40625)"/>
</clipPath>
</defs>
</svg>
