<svg width="13" height="13" viewBox="0 0 13 13" fill="none" xmlns="http://www.w3.org/2000/svg">
<path d="M9.26229 8.52014C9.79245 7.82255 10.1133 7.04823 10.225 6.19717C10.3366 5.34612 10.2389 4.51599 9.93197 3.70679C9.62503 2.89759 9.13672 2.20698 8.46704 1.63496C7.79736 1.06294 7.04396 0.68624 6.20686 0.504869C5.36976 0.323496 4.53963 0.358375 3.71648 0.609506C2.89332 0.860638 2.16783 1.29314 1.54001 1.90702C0.912179 2.52089 0.479675 3.23941 0.242496 4.06256C0.00531665 4.88571 -0.0225868 5.71584 0.158786 6.55294C0.340158 7.39005 0.716855 8.14344 1.28888 8.81312C1.8609 9.48281 2.55151 9.97112 3.36071 10.2781C4.16991 10.585 5.00004 10.6827 5.85109 10.571C6.70215 10.4594 7.47647 10.1385 8.17405 9.60837L11.2713 12.7475C11.4109 12.887 11.5922 12.9568 11.8155 12.9568C12.0387 12.9568 12.227 12.8801 12.3805 12.7266C12.534 12.5731 12.6107 12.3848 12.6107 12.1615C12.6107 11.9383 12.5409 11.7569 12.4014 11.6174L9.26229 8.52014ZM9.47156 5.50656C9.47156 6.28786 9.27624 7.00637 8.88559 7.66211C8.49494 8.31784 7.97175 8.84103 7.31602 9.23168C6.66029 9.62232 5.94178 9.81765 5.16048 9.81765C4.37918 9.81765 3.65369 9.62232 2.98401 9.23168C2.31433 8.84103 1.79114 8.31784 1.41444 7.66211C1.03774 7.00637 0.849396 6.28786 0.849396 5.50656C0.849396 4.72527 1.03774 3.99978 1.41444 3.33009C1.79114 2.66041 2.31433 2.13722 2.98401 1.76052C3.65369 1.38383 4.37918 1.19548 5.16048 1.19548C5.94178 1.19548 6.66029 1.38383 7.31602 1.76052C7.97175 2.13722 8.49494 2.66041 8.88559 3.33009C9.27624 3.99978 9.47156 4.72527 9.47156 5.50656Z" fill="black"/>
</svg>
