<svg width="22" height="22" viewBox="0 0 22 22" fill="none" xmlns="http://www.w3.org/2000/svg">
<path d="M10.5 2.49998H3.5C2.96957 2.49998 2.46086 2.7107 2.08579 3.08577C1.71071 3.46084 1.5 3.96955 1.5 4.49998V18.5C1.5 19.0304 1.71071 19.5391 2.08579 19.9142C2.46086 20.2893 2.96957 20.5 3.5 20.5H17.5C18.0304 20.5 18.5391 20.2893 18.9142 19.9142C19.2893 19.5391 19.5 19.0304 19.5 18.5V11.5M16.875 2.12498C17.2728 1.72716 17.8124 1.50366 18.375 1.50366C18.9376 1.50366 19.4772 1.72716 19.875 2.12498C20.2728 2.52281 20.4963 3.06237 20.4963 3.62498C20.4963 4.18759 20.2728 4.72716 19.875 5.12498L10.862 14.139C10.6245 14.3762 10.3312 14.5499 10.009 14.644L7.136 15.484C7.04995 15.5091 6.95874 15.5106 6.87191 15.4883C6.78508 15.4661 6.70583 15.4209 6.64245 15.3575C6.57907 15.2942 6.53389 15.2149 6.51164 15.1281C6.4894 15.0412 6.4909 14.95 6.516 14.864L7.356 11.991C7.45053 11.669 7.62453 11.376 7.862 11.139L16.875 2.12498Z" stroke="#5578C7" stroke-width="2" stroke-linecap="round" stroke-linejoin="round"/>
</svg>
