<svg width="14" height="19" viewBox="0 0 14 19" fill="none" xmlns="http://www.w3.org/2000/svg">
<path d="M7.1968 0.798828C3.73346 0.798828 0.92334 3.30813 0.92334 6.40013C0.92334 11.3791 7.1968 18.2251 7.1968 18.2251C7.1968 18.2251 13.4703 11.3791 13.4703 6.40013C13.4703 3.30813 10.6601 0.798828 7.1968 0.798828ZM7.1968 9.51196C6.70049 9.51196 6.21533 9.36596 5.80266 9.09241C5.38999 8.81887 5.06836 8.43007 4.87843 7.97518C4.6885 7.52028 4.63881 7.01974 4.73563 6.53683C4.83246 6.05392 5.07145 5.61034 5.4224 5.26218C5.77334 4.91402 6.22047 4.67692 6.70724 4.58086C7.19402 4.48481 7.69857 4.53411 8.1571 4.72253C8.61563 4.91095 9.00754 5.23003 9.28327 5.63942C9.55901 6.04881 9.70618 6.53013 9.70618 7.0225C9.70546 7.68252 9.44084 8.31531 8.9704 8.78202C8.49996 9.24873 7.86211 9.51124 7.1968 9.51196Z" fill="#6B6E82"/>
</svg>
