<svg width="19" height="18" viewBox="0 0 19 18" fill="none" xmlns="http://www.w3.org/2000/svg">
<path fill-rule="evenodd" clip-rule="evenodd" d="M7.56089 4.0304C6.63654 4.0304 5.75005 4.3976 5.09644 5.05121C4.44283 5.70482 4.07564 6.59131 4.07564 7.51566C4.07564 8.44001 4.44283 9.3265 5.09644 9.98011C5.75005 10.6337 6.63654 11.0009 7.56089 11.0009C8.48524 11.0009 9.37173 10.6337 10.0253 9.98011C10.6789 9.3265 11.0461 8.44001 11.0461 7.51566C11.0461 6.59131 10.6789 5.70482 10.0253 5.05121C9.37173 4.3976 8.48524 4.0304 7.56089 4.0304ZM2.33301 7.51566C2.3329 6.69288 2.527 5.8817 2.89951 5.14807C3.27202 4.41445 3.81243 3.77912 4.47678 3.29373C5.14114 2.80835 5.91068 2.48662 6.72281 2.35472C7.53495 2.22282 8.36675 2.28448 9.15057 2.53466C9.93439 2.78485 10.6481 3.21651 11.2336 3.79454C11.8192 4.37256 12.26 5.08063 12.5203 5.86115C12.7806 6.64167 12.853 7.47261 12.7315 8.28638C12.6101 9.10015 12.2984 9.87378 11.8216 10.5443L16.0187 14.7415C16.1774 14.9058 16.2653 15.1259 16.2633 15.3543C16.2613 15.5828 16.1697 15.8013 16.0081 15.9629C15.8466 16.1244 15.628 16.2161 15.3996 16.2181C15.1711 16.22 14.951 16.1322 14.7867 15.9735L10.5904 11.7773C9.80832 12.3334 8.8882 12.6635 7.93092 12.7314C6.97363 12.7994 6.01611 12.6025 5.1633 12.1624C4.31048 11.7222 3.59527 11.0558 3.09604 10.2362C2.59681 9.41658 2.33282 8.47535 2.33301 7.51566V7.51566Z" fill="#6F727A"/>
</svg>
