<svg width="41" height="41" viewBox="0 0 41 41" fill="none" xmlns="http://www.w3.org/2000/svg">
<path d="M40.8687 20.6621C40.8687 31.8772 31.7771 40.9688 20.562 40.9688C9.34697 40.9688 0.255371 31.8772 0.255371 20.6621C0.255371 9.44707 9.34697 0.355469 20.562 0.355469C31.7771 0.355469 40.8687 9.44707 40.8687 20.6621Z" fill="white"/>
<path fill-rule="evenodd" clip-rule="evenodd" d="M20.562 40.0202C31.2532 40.0202 39.9201 31.3533 39.9201 20.6621C39.9201 9.97097 31.2532 1.30408 20.562 1.30408C9.87088 1.30408 1.20398 9.97097 1.20398 20.6621C1.20398 31.3533 9.87088 40.0202 20.562 40.0202ZM20.562 40.9688C31.7771 40.9688 40.8687 31.8772 40.8687 20.6621C40.8687 9.44707 31.7771 0.355469 20.562 0.355469C9.34697 0.355469 0.255371 9.44707 0.255371 20.6621C0.255371 31.8772 9.34697 40.9688 20.562 40.9688Z" fill="white"/>
<path fill-rule="evenodd" clip-rule="evenodd" d="M15.286 12.1127C15.4204 11.9336 15.6313 11.8281 15.8552 11.8281H25.4576C25.6815 11.8281 25.8924 11.9336 26.0268 12.1127L28.4273 15.3135C28.5197 15.4366 28.5696 15.5864 28.5696 15.7404V26.9431C28.5696 27.5563 28.3261 28.1443 27.8925 28.5779C27.459 29.0114 26.8709 29.255 26.2578 29.255H15.055C14.4419 29.255 13.8538 29.0114 13.4203 28.5779C12.9867 28.1443 12.7432 27.5563 12.7432 26.9431V15.7404C12.7432 15.5864 12.7931 15.4366 12.8855 15.3135L15.286 12.1127ZM16.2109 13.251L14.1661 15.9775V26.9431C14.1661 27.1789 14.2597 27.405 14.4264 27.5717C14.5932 27.7384 14.8193 27.8321 15.055 27.8321H26.2578C26.4935 27.8321 26.7196 27.7384 26.8864 27.5717C27.0531 27.405 27.1467 27.1789 27.1467 26.9431V15.9775L25.1019 13.251H16.2109Z" fill="#369BFF"/>
<path fill-rule="evenodd" clip-rule="evenodd" d="M12.7432 15.7408C12.7432 15.3478 13.0617 15.0293 13.4546 15.0293H27.8582C28.2511 15.0293 28.5696 15.3478 28.5696 15.7408C28.5696 16.1337 28.2511 16.4522 27.8582 16.4522H13.4546C13.0617 16.4522 12.7432 16.1337 12.7432 15.7408Z" fill="#369BFF"/>
<path fill-rule="evenodd" clip-rule="evenodd" d="M17.4556 18.2285C17.8485 18.2285 18.1671 18.547 18.1671 18.94C18.1671 19.6002 18.4293 20.2334 18.8962 20.7002C19.363 21.167 19.9962 21.4293 20.6564 21.4293C21.3166 21.4293 21.9498 21.167 22.4166 20.7002C22.8835 20.2334 23.1457 19.6002 23.1457 18.94C23.1457 18.547 23.4643 18.2285 23.8572 18.2285C24.2501 18.2285 24.5686 18.547 24.5686 18.94C24.5686 19.9776 24.1565 20.9727 23.4228 21.7064C22.6891 22.44 21.694 22.8522 20.6564 22.8522C19.6188 22.8522 18.6237 22.44 17.89 21.7064C17.1563 20.9727 16.7441 19.9776 16.7441 18.94C16.7441 18.547 17.0627 18.2285 17.4556 18.2285Z" fill="#369BFF"/>
</svg>
