<svg width="41" height="41" viewBox="0 0 41 41" fill="none" xmlns="http://www.w3.org/2000/svg">
<path d="M40.8687 20.5938C40.8687 31.8088 31.7771 40.9004 20.562 40.9004C9.34697 40.9004 0.255371 31.8088 0.255371 20.5938C0.255371 9.37871 9.34697 0.287109 20.562 0.287109C31.7771 0.287109 40.8687 9.37871 40.8687 20.5938Z" fill="white"/>
<path fill-rule="evenodd" clip-rule="evenodd" d="M20.562 39.9518C31.2532 39.9518 39.9201 31.2849 39.9201 20.5938C39.9201 9.90262 31.2532 1.23572 20.562 1.23572C9.87088 1.23572 1.20398 9.90262 1.20398 20.5938C1.20398 31.2849 9.87088 39.9518 20.562 39.9518ZM20.562 40.9004C31.7771 40.9004 40.8687 31.8088 40.8687 20.5938C40.8687 9.37871 31.7771 0.287109 20.562 0.287109C9.34697 0.287109 0.255371 9.37871 0.255371 20.5938C0.255371 31.8088 9.34697 40.9004 20.562 40.9004Z" fill="white"/>
<path fill-rule="evenodd" clip-rule="evenodd" d="M17.6781 13.978C17.8533 13.8778 18.067 13.8719 18.2475 13.9622L23.1276 16.4022L27.3699 13.978C27.5567 13.8712 27.7863 13.872 27.9724 13.98C28.1585 14.088 28.2731 14.2869 28.2731 14.5021V24.84C28.2731 25.0567 28.157 25.2567 27.9689 25.3642L23.4461 27.9486C23.2708 28.0488 23.0571 28.0547 22.8766 27.9644L17.9966 25.5244L13.7542 27.9486C13.5674 28.0554 13.3379 28.0546 13.1517 27.9466C12.9656 27.8386 12.8511 27.6397 12.8511 27.4245V17.0866C12.8511 16.87 12.9671 16.6699 13.1552 16.5625L17.6781 13.978ZM17.9966 15.1865L14.0584 17.4369V26.3843L17.6781 24.3159C17.8533 24.2158 18.067 24.2098 18.2475 24.3001L23.1276 26.7401L27.0657 24.4897V15.5423L23.4461 17.6107C23.2708 17.7108 23.0571 17.7168 22.8766 17.6265L17.9966 15.1865Z" fill="#413DFB"/>
<path fill-rule="evenodd" clip-rule="evenodd" d="M17.9772 13.8984C18.3106 13.8984 18.5809 14.1687 18.5809 14.5021V24.84C18.5809 25.1734 18.3106 25.4437 17.9772 25.4437C17.6438 25.4437 17.3735 25.1734 17.3735 24.84V14.5021C17.3735 14.1687 17.6438 13.8984 17.9772 13.8984Z" fill="#413DFB"/>
<path fill-rule="evenodd" clip-rule="evenodd" d="M23.1466 16.4824C23.48 16.4824 23.7503 16.7527 23.7503 17.0861V27.424C23.7503 27.7574 23.48 28.0277 23.1466 28.0277C22.8132 28.0277 22.543 27.7574 22.543 27.424V17.0861C22.543 16.7527 22.8132 16.4824 23.1466 16.4824Z" fill="#413DFB"/>
</svg>
