<svg width="41" height="42" viewBox="0 0 41 42" fill="none" xmlns="http://www.w3.org/2000/svg">
<path d="M40.8687 21.2149C40.8687 32.4299 31.7771 41.5215 20.562 41.5215C9.34697 41.5215 0.255371 32.4299 0.255371 21.2149C0.255371 9.99981 9.34697 0.908203 20.562 0.908203C31.7771 0.908203 40.8687 9.99981 40.8687 21.2149Z" fill="white"/>
<path fill-rule="evenodd" clip-rule="evenodd" d="M13.7588 16.9393C13.7588 15.0023 15.2901 13.3965 17.221 13.3965H20.861C22.7924 13.3965 24.3239 15.0022 24.3239 16.9393V17.6562C24.3239 18.0492 24.0054 18.3677 23.6124 18.3677C23.2195 18.3677 22.901 18.0492 22.901 17.6562V16.9393C22.901 15.7493 21.9684 14.8194 20.861 14.8194H17.221C16.1144 14.8194 15.1817 15.7492 15.1817 16.9393V25.4912C15.1817 26.6814 16.1144 27.6111 17.221 27.6111H20.8684C21.9717 27.6111 22.901 26.6848 22.901 25.4997V24.7751C22.901 24.3822 23.2195 24.0636 23.6124 24.0636C24.0054 24.0636 24.3239 24.3822 24.3239 24.7751V25.4997C24.3239 27.4325 22.7952 29.0341 20.8684 29.0341H17.221C15.2901 29.0341 13.7588 27.4283 13.7588 25.4912V16.9393Z" fill="#FB4A59"/>
<path fill-rule="evenodd" clip-rule="evenodd" d="M17.9673 21.2154C17.9673 20.8224 18.2858 20.5039 18.6787 20.5039H27.6694C28.0623 20.5039 28.3808 20.8224 28.3808 21.2154C28.3808 21.6083 28.0623 21.9268 27.6694 21.9268H18.6787C18.2858 21.9268 17.9673 21.6083 17.9673 21.2154Z" fill="#FB4A59"/>
<path fill-rule="evenodd" clip-rule="evenodd" d="M24.9865 18.466C25.2677 18.1915 25.7181 18.197 25.9926 18.4782L28.1788 20.7179C28.4485 20.9943 28.4486 21.4354 28.1789 21.7118L25.9926 23.9523C25.7182 24.2335 25.2678 24.2391 24.9866 23.9646C24.7053 23.6902 24.6998 23.2398 24.9742 22.9586L26.6756 21.215L24.9743 19.4721C24.6998 19.1909 24.7053 18.7405 24.9865 18.466Z" fill="#FB4A59"/>
</svg>
