<svg width="68" height="68" viewBox="0 0 68 68" fill="none" xmlns="http://www.w3.org/2000/svg">
<path d="M34 6.375C23.4414 6.375 14.875 14.5284 14.875 24.5703C14.875 36.125 27.625 54.4359 32.3066 60.7604C32.501 61.0274 32.7557 61.2446 33.05 61.3944C33.3443 61.5442 33.6698 61.6223 34 61.6223C34.3302 61.6223 34.6557 61.5442 34.95 61.3944C35.2443 61.2446 35.499 61.0274 35.6934 60.7604C40.375 54.4385 53.125 36.1343 53.125 24.5703C53.125 14.5284 44.5586 6.375 34 6.375Z" stroke="#059C6A" stroke-width="4.25" stroke-linecap="round" stroke-linejoin="round"/>
<path d="M34 31.875C37.5208 31.875 40.375 29.0208 40.375 25.5C40.375 21.9792 37.5208 19.125 34 19.125C30.4792 19.125 27.625 21.9792 27.625 25.5C27.625 29.0208 30.4792 31.875 34 31.875Z" stroke="#059C6A" stroke-width="4.25" stroke-linecap="round" stroke-linejoin="round"/>
</svg>
