<svg width="45" height="49" viewBox="0 0 45 49" fill="none" xmlns="http://www.w3.org/2000/svg">
<path d="M9.25846 2.21289L2.5918 11.1018V42.2129C2.5918 43.3916 3.06005 44.5221 3.89354 45.3556C4.72704 46.1891 5.8575 46.6573 7.03624 46.6573H38.1474C39.3261 46.6573 40.4566 46.1891 41.2901 45.3556C42.1235 44.5221 42.5918 43.3916 42.5918 42.2129V11.1018L35.9251 2.21289H9.25846Z" stroke="#FFC736" stroke-width="3.95157" stroke-linecap="round" stroke-linejoin="round"/>
<path d="M2.5918 11.1016H42.5918" stroke="#FFC736" stroke-width="3.95157" stroke-linecap="round" stroke-linejoin="round"/>
<path d="M31.4814 19.9902C31.4814 22.3477 30.5449 24.6086 28.8779 26.2756C27.2109 27.9426 24.95 28.8791 22.5925 28.8791C20.235 28.8791 17.9741 27.9426 16.3071 26.2756C14.6401 24.6086 13.7036 22.3477 13.7036 19.9902" stroke="#FFC736" stroke-width="3.95157" stroke-linecap="round" stroke-linejoin="round"/>
</svg>
