<svg width="41" height="42" viewBox="0 0 41 42" fill="none" xmlns="http://www.w3.org/2000/svg">
<path d="M40.8687 21.1621C40.8687 32.3772 31.7771 41.4688 20.562 41.4688C9.34697 41.4688 0.255371 32.3772 0.255371 21.1621C0.255371 9.94707 9.34697 0.855469 20.562 0.855469C31.7771 0.855469 40.8687 9.94707 40.8687 21.1621Z" fill="white"/>
<path fill-rule="evenodd" clip-rule="evenodd" d="M20.562 40.5202C31.2532 40.5202 39.9201 31.8533 39.9201 21.1621C39.9201 10.471 31.2532 1.80408 20.562 1.80408C9.87088 1.80408 1.20398 10.471 1.20398 21.1621C1.20398 31.8533 9.87088 40.5202 20.562 40.5202ZM20.562 41.4688C31.7771 41.4688 40.8687 32.3772 40.8687 21.1621C40.8687 9.94707 31.7771 0.855469 20.562 0.855469C9.34697 0.855469 0.255371 9.94707 0.255371 21.1621C0.255371 32.3772 9.34697 41.4688 20.562 41.4688Z" fill="white"/>
<path fill-rule="evenodd" clip-rule="evenodd" d="M15.8112 12.845C15.991 12.7339 16.2155 12.7238 16.4045 12.8183L17.3514 13.2917L18.2984 12.8183C18.4702 12.7324 18.6724 12.7325 18.8442 12.8185L19.7902 13.2924L20.7519 12.817C20.9239 12.7321 21.1258 12.7329 21.297 12.8194L22.2304 13.2906L23.1675 12.819C23.3396 12.7324 23.5425 12.7322 23.7148 12.8185L24.6601 13.2922L25.6181 12.8173C25.7894 12.7324 25.9906 12.7328 26.1616 12.8183L27.1088 13.2917L28.0554 12.8183C28.2444 12.7238 28.469 12.7339 28.6488 12.845C28.8286 12.9561 28.938 13.1524 28.938 13.3637V21.9012H27.7184V14.3506L27.3817 14.519C27.21 14.6048 27.008 14.6048 26.8363 14.519L25.8878 14.0449L24.9294 14.5199C24.7579 14.6049 24.5565 14.6045 24.3854 14.5187L23.4422 14.0461L22.5041 14.5183C22.3314 14.6052 22.1277 14.6051 21.9551 14.5179L21.0193 14.0454L20.0586 14.5202C19.8873 14.6049 19.6862 14.6044 19.5153 14.5188L18.5708 14.0457L17.6242 14.519C17.4525 14.6048 17.2504 14.6048 17.0787 14.519L16.7416 14.3504V24.3405H15.522V13.3637C15.522 13.1524 15.6314 12.9561 15.8112 12.845Z" fill="#FFAA2A"/>
<path fill-rule="evenodd" clip-rule="evenodd" d="M27.718 26.1711V21.9023H28.9377V26.1711C28.9377 27.1415 28.5522 28.0721 27.866 28.7583C27.1798 29.4445 26.2491 29.83 25.2787 29.83H14.302C13.541 29.83 12.9001 29.7058 12.3736 29.441C11.8373 29.1713 11.4557 28.7734 11.1942 28.2912C10.6969 27.3738 10.6431 26.1529 10.6431 24.9537M22.5515 28.6104H14.302C13.6669 28.6104 13.2286 28.5059 12.9216 28.3514C12.6244 28.2019 12.4183 27.9899 12.2665 27.7099C11.9376 27.1033 11.8627 26.1908 11.8627 24.9514H21.6198V26.1711C21.6198 27.0734 21.9531 27.9414 22.5515 28.6104ZM25.2787 28.6104C24.6318 28.6104 24.0114 28.3534 23.5539 27.8959C23.0965 27.4385 22.8395 26.818 22.8395 26.1711V24.3416C22.8395 24.0048 22.5664 23.7318 22.2296 23.7318H11.8649M27.718 26.1711C27.718 26.818 27.461 27.4385 27.0036 27.8959L27.718 26.1711ZM27.0036 27.8959C26.5461 28.3534 25.9257 28.6104 25.2787 28.6104L27.0036 27.8959Z" fill="#FFAA2A"/>
<path fill-rule="evenodd" clip-rule="evenodd" d="M17.9609 17.0219C17.9609 16.6851 18.234 16.4121 18.5708 16.4121H25.8886C26.2254 16.4121 26.4984 16.6851 26.4984 17.0219C26.4984 17.3587 26.2254 17.6317 25.8886 17.6317H18.5708C18.234 17.6317 17.9609 17.3587 17.9609 17.0219ZM20.4002 20.071C20.4002 19.7342 20.6732 19.4612 21.01 19.4612H25.8886C26.2254 19.4612 26.4984 19.7342 26.4984 20.071C26.4984 20.4078 26.2254 20.6808 25.8886 20.6808H21.01C20.6732 20.6808 20.4002 20.4078 20.4002 20.071Z" fill="#FFAA2A"/>
</svg>
