<svg width="73" height="63" viewBox="0 0 73 63" fill="none" xmlns="http://www.w3.org/2000/svg">
<path d="M1.06055 9.60206C1.06055 5.19969 4.62937 1.63086 9.03174 1.63086H63.5209C67.9233 1.63086 71.4921 5.19969 71.4921 9.60206V53.3193C71.4921 57.7217 67.9233 61.2905 63.5209 61.2905H9.03173C4.62936 61.2905 1.06055 57.7217 1.06055 53.3193V9.60206Z" fill="white" stroke="white" stroke-width="1.65721"/>
<path d="M37.4921 22.1797C35.6698 22.1797 34.1777 23.6835 34.1777 25.5201C34.1777 26.7565 34.8639 27.8395 35.8608 28.4169C35.8446 28.5637 35.8349 28.7072 35.8349 28.8605C35.8349 31.1571 37.6992 33.0361 39.9779 33.0361C42.2566 33.0361 44.1209 31.1571 44.1209 28.8605C44.1209 26.8152 42.6353 25.0862 40.7029 24.7372C40.3534 23.2725 39.049 22.1797 37.4921 22.1797ZM37.4921 23.8499C38.1653 23.8499 38.7318 24.2446 38.9939 24.8155C37.9096 25.0862 36.9904 25.8007 36.4304 26.7467C36.0744 26.4466 35.8349 26.029 35.8349 25.5201C35.8349 24.5871 36.5664 23.8499 37.4921 23.8499ZM39.9779 26.3552C41.36 26.3552 42.4637 27.4676 42.4637 28.8605C42.4637 30.2535 41.36 31.3658 39.9779 31.3658C38.5958 31.3658 37.4921 30.2535 37.4921 28.8605C37.4921 27.4676 38.5958 26.3552 39.9779 26.3552ZM32.9089 32.201C30.2612 32.201 26.7461 33.6624 26.7461 33.6624L27.3675 35.2282C27.3675 35.2282 30.928 33.8712 32.9089 33.8712C33.7116 33.8712 35.0807 34.367 36.1974 34.9411C36.7541 35.2282 37.2526 35.5283 37.6216 35.7763C37.8061 35.9002 37.9614 36.0111 38.0618 36.0894C38.1103 36.1286 38.1459 36.1742 38.1653 36.1938L38.2948 36.3765C38.3595 36.5624 38.3401 36.7712 38.2171 36.9506C38.0585 37.1757 37.7769 37.2638 37.518 37.1855H37.4921L33.8928 35.437L33.1937 36.9506L36.8706 38.7252H36.8965L36.9483 38.7513C37.9064 39.0906 38.9778 38.7546 39.5636 37.9162C39.8938 37.4432 39.9909 36.8886 39.9261 36.3504L43.9138 35.6719C44.354 35.5968 44.7586 35.8741 44.8978 36.2982C45.0466 36.7484 44.8363 37.2051 44.4058 37.3943C43.192 37.9325 41.2402 38.7383 39.4859 39.4037C38.6088 39.7365 37.7704 40.0301 37.1296 40.2388C36.8091 40.3432 36.5308 40.4215 36.3269 40.4737C36.1229 40.5259 35.9579 40.552 36.042 40.552C36.0938 40.552 35.7604 40.477 35.3688 40.2649C34.9771 40.0529 34.4852 39.743 33.9964 39.4298C33.5077 39.1167 33.0027 38.8002 32.5204 38.5425C32.0382 38.2848 31.6044 38.0467 31.0186 38.0467C29.6624 38.0467 28.4551 38.5686 28.4551 38.5686L29.1024 40.1084C29.1024 40.1084 30.1155 39.7169 31.0186 39.7169C30.9959 39.7169 31.3487 39.7919 31.7436 40.004C32.1385 40.216 32.6273 40.5259 33.116 40.8391C33.6048 41.1522 34.0935 41.4687 34.5661 41.7264C35.0386 41.9841 35.4529 42.2222 36.042 42.2222C36.3236 42.2222 36.4855 42.1602 36.7412 42.0917C36.9969 42.0232 37.3076 41.9417 37.6475 41.8308C38.3272 41.6089 39.1622 41.3088 40.0556 40.9696C41.839 40.2943 43.8167 39.4951 45.079 38.934C46.2766 38.4023 46.8916 36.9995 46.4773 35.7502C46.0824 34.5562 44.8622 33.8222 43.629 34.0277L39.0975 34.7846C39.0943 34.7813 39.0781 34.7878 39.0716 34.7846C39.0457 34.765 39.0198 34.7258 38.9939 34.7063L38.7609 34.5236V34.5497C38.6897 34.4975 38.6379 34.4486 38.5537 34.3931C38.1233 34.106 37.5633 33.77 36.9483 33.4536C35.7151 32.8208 34.2683 32.201 32.9089 32.201Z" fill="#FF7622"/>
</svg>
