<svg width="41" height="42" viewBox="0 0 41 42" fill="none" xmlns="http://www.w3.org/2000/svg">
<path d="M40.8687 20.8535C40.8687 32.0686 31.7771 41.1602 20.562 41.1602C9.34697 41.1602 0.255371 32.0686 0.255371 20.8535C0.255371 9.63848 9.34697 0.546875 20.562 0.546875C31.7771 0.546875 40.8687 9.63848 40.8687 20.8535Z" fill="white"/>
<path fill-rule="evenodd" clip-rule="evenodd" d="M20.562 40.2116C31.2532 40.2116 39.9201 31.5447 39.9201 20.8535C39.9201 10.1624 31.2532 1.49549 20.562 1.49549C9.87088 1.49549 1.20398 10.1624 1.20398 20.8535C1.20398 31.5447 9.87088 40.2116 20.562 40.2116ZM20.562 41.1602C31.7771 41.1602 40.8687 32.0686 40.8687 20.8535C40.8687 9.63848 31.7771 0.546875 20.562 0.546875C9.34697 0.546875 0.255371 9.63848 0.255371 20.8535C0.255371 32.0686 9.34697 41.1602 20.562 41.1602Z" fill="white"/>
<path fill-rule="evenodd" clip-rule="evenodd" d="M14.7984 23.3695C15.5043 22.5851 16.4798 22.127 17.5163 22.127H23.6083C24.6448 22.127 25.6204 22.5851 26.3262 23.3695C27.0297 24.1511 27.4132 25.1957 27.4132 26.2703V27.9625C27.4132 28.3816 27.0734 28.7214 26.6543 28.7214C26.2352 28.7214 25.8954 28.3816 25.8954 27.9625V26.2703C25.8954 25.5496 25.637 24.8725 25.1981 24.3848C24.7615 23.8997 24.1875 23.6447 23.6083 23.6447H17.5163C16.9371 23.6447 16.3631 23.8997 15.9265 24.3848C15.4876 24.8725 15.2292 25.5496 15.2292 26.2703V27.9625C15.2292 28.3816 14.8894 28.7214 14.4703 28.7214C14.0512 28.7214 13.7114 28.3816 13.7114 27.9625V26.2703C13.7114 25.1957 14.0949 24.1511 14.7984 23.3695Z" fill="#FB6F3D"/>
<path fill-rule="evenodd" clip-rule="evenodd" d="M20.5622 14.5061C19.2991 14.5061 18.2751 15.53 18.2751 16.7932C18.2751 18.0563 19.2991 19.0803 20.5622 19.0803C21.8253 19.0803 22.8493 18.0563 22.8493 16.7932C22.8493 15.53 21.8253 14.5061 20.5622 14.5061ZM16.7573 16.7932C16.7573 14.6918 18.4608 12.9883 20.5622 12.9883C22.6636 12.9883 24.3671 14.6918 24.3671 16.7932C24.3671 18.8946 22.6636 20.5981 20.5622 20.5981C18.4608 20.5981 16.7573 18.8946 16.7573 16.7932Z" fill="#FB6F3D"/>
</svg>
