<svg width="69" height="72" viewBox="0 0 69 72" fill="none" xmlns="http://www.w3.org/2000/svg">
<g filter="url(#filter0_d_154_85)">
<rect x="12" y="8" width="45" height="48" rx="22.5" fill="white" shape-rendering="crispEdges"/>
<path d="M45.853 24.96C45.018 25.33 44.121 25.58 43.178 25.693C44.151 25.1108 44.8789 24.1945 45.226 23.115C44.3118 23.658 43.3113 24.0402 42.268 24.245C41.5664 23.4959 40.637 22.9994 39.6243 22.8325C38.6116 22.6656 37.5721 22.8378 36.6672 23.3223C35.7624 23.8067 35.0427 24.5764 34.6201 25.5117C34.1975 26.4471 34.0955 27.4958 34.33 28.495C32.4777 28.402 30.6656 27.9206 29.0114 27.0819C27.3572 26.2433 25.8978 25.0662 24.728 23.627C24.328 24.317 24.098 25.117 24.098 25.969C24.0975 26.736 24.2864 27.4913 24.6479 28.1678C25.0093 28.8442 25.5321 29.4211 26.17 29.847C25.4302 29.8235 24.7068 29.6236 24.06 29.264V29.324C24.0599 30.3998 24.432 31.4424 25.1132 32.275C25.7943 33.1076 26.7425 33.679 27.797 33.892C27.1108 34.0777 26.3913 34.1051 25.693 33.972C25.9905 34.8976 26.57 35.7071 27.3503 36.287C28.1307 36.8669 29.0729 37.1882 30.045 37.206C28.3948 38.5014 26.3569 39.2041 24.259 39.201C23.8874 39.2011 23.516 39.1794 23.147 39.136C25.2764 40.5052 27.7553 41.2318 30.287 41.229C38.857 41.229 43.542 34.131 43.542 27.975C43.542 27.775 43.537 27.573 43.528 27.373C44.4393 26.714 45.2259 25.8979 45.851 24.963L45.853 24.96Z" fill="#1D1D1D"/>
</g>
<defs>
<filter id="filter0_d_154_85" x="0" y="0" width="69" height="72" filterUnits="userSpaceOnUse" color-interpolation-filters="sRGB">
<feFlood flood-opacity="0" result="BackgroundImageFix"/>
<feColorMatrix in="SourceAlpha" type="matrix" values="0 0 0 0 0 0 0 0 0 0 0 0 0 0 0 0 0 0 127 0" result="hardAlpha"/>
<feOffset dy="4"/>
<feGaussianBlur stdDeviation="6"/>
<feComposite in2="hardAlpha" operator="out"/>
<feColorMatrix type="matrix" values="0 0 0 0 0.1125 0 0 0 0 0.1125 0 0 0 0 0.1125 0 0 0 0.15 0"/>
<feBlend mode="normal" in2="BackgroundImageFix" result="effect1_dropShadow_154_85"/>
<feBlend mode="normal" in="SourceGraphic" in2="effect1_dropShadow_154_85" result="shape"/>
</filter>
</defs>
</svg>
