<svg width="50" height="50" viewBox="0 0 50 50" fill="none" xmlns="http://www.w3.org/2000/svg">
<circle cx="25" cy="25" r="25" fill="white"/>
<path d="M12.5 23.4691C11.6545 23.4691 10.9691 24.1545 10.9691 25C10.9691 25.8455 11.6545 26.5309 12.5 26.5309L12.5 23.4691ZM38.5825 26.0825C39.1804 25.4847 39.1804 24.5153 38.5825 23.9175L28.8397 14.1747C28.2419 13.5768 27.2725 13.5768 26.6747 14.1747C26.0768 14.7726 26.0768 15.7419 26.6747 16.3397L35.3349 25L26.6747 33.6603C26.0768 34.2581 26.0768 35.2275 26.6747 35.8253C27.2725 36.4232 28.2419 36.4232 28.8397 35.8253L38.5825 26.0825ZM12.5 26.5309L37.5 26.5309L37.5 23.4691L12.5 23.4691L12.5 26.5309Z" fill="#FF7622"/>
</svg>
