<svg width="50" height="50" viewBox="0 0 50 50" fill="none" xmlns="http://www.w3.org/2000/svg">
<circle cx="25" cy="25" r="25" fill="white"/>
<path d="M38 26.5309C38.8455 26.5309 39.5309 25.8455 39.5309 25C39.5309 24.1545 38.8455 23.4691 38 23.4691V26.5309ZM11.9175 23.9175C11.3196 24.5153 11.3196 25.4847 11.9175 26.0825L21.6603 35.8253C22.2581 36.4232 23.2275 36.4232 23.8253 35.8253C24.4232 35.2275 24.4232 34.2581 23.8253 33.6603L15.1651 25L23.8253 16.3397C24.4232 15.7419 24.4232 14.7725 23.8253 14.1747C23.2275 13.5768 22.2581 13.5768 21.6603 14.1747L11.9175 23.9175ZM38 23.4691L13 23.4691V26.5309L38 26.5309V23.4691Z" fill="#FF7622"/>
</svg>
