<svg width="47" height="51" viewBox="0 0 47 51" fill="none" xmlns="http://www.w3.org/2000/svg">
<path d="M9.85069 3.00586L3.01074 12.1258V44.0455C3.01074 45.2549 3.49117 46.4148 4.34632 47.2699C5.20148 48.1251 6.36133 48.6055 7.57071 48.6055H39.4905C40.6998 48.6055 41.8597 48.1251 42.7148 47.2699C43.57 46.4148 44.0504 45.2549 44.0504 44.0455V12.1258L37.2105 3.00586H9.85069Z" stroke="black" stroke-width="4.05428" stroke-linecap="round" stroke-linejoin="round"/>
<path d="M3.01074 12.1255H44.0504" stroke="black" stroke-width="4.05428" stroke-linecap="round" stroke-linejoin="round"/>
<path d="M32.651 21.2446C32.651 23.6634 31.6901 25.9831 29.9798 27.6934C28.2695 29.4037 25.9498 30.3646 23.5311 30.3646C21.1123 30.3646 18.7926 29.4037 17.0823 27.6934C15.372 25.9831 14.4111 23.6634 14.4111 21.2446" stroke="black" stroke-width="4.05428" stroke-linecap="round" stroke-linejoin="round"/>
</svg>
