<svg width="16" height="18" viewBox="0 0 16 18" fill="none" xmlns="http://www.w3.org/2000/svg">
<path d="M14.4 0.5H5.6C5.30826 0.5 5.02847 0.627933 4.82218 0.855656C4.61589 1.08338 4.5 1.39224 4.5 1.71429H14.4V16.2857H5.6V10.3357H4.5V16.2857C4.5 16.6078 4.61589 16.9166 4.82218 17.1443C5.02847 17.3721 5.30826 17.5 5.6 17.5H14.4C14.6917 17.5 14.9715 17.3721 15.1778 17.1443C15.3841 16.9166 15.5 16.6078 15.5 16.2857V1.71429C15.5 1.39224 15.3841 1.08338 15.1778 0.855656C14.9715 0.627933 14.6917 0.5 14.4 0.5Z" fill="white"/>
<path d="M8.02795 11.3434C7.96293 11.4023 7.91012 11.4748 7.87284 11.5564C7.83556 11.6379 7.81461 11.7267 7.81131 11.8173C7.808 11.9078 7.82241 11.9981 7.85364 12.0824C7.88487 12.1668 7.93223 12.2434 7.99276 12.3075C8.05329 12.3715 8.12568 12.4217 8.20539 12.4547C8.28509 12.4878 8.37039 12.503 8.45593 12.4995C8.54147 12.496 8.62541 12.4738 8.70247 12.4344C8.77952 12.3949 8.84805 12.339 8.90373 12.2702L12.5 8.46415L8.90994 4.65807C8.79112 4.55037 8.63828 4.4941 8.48195 4.50049C8.32563 4.50688 8.17735 4.57546 8.06673 4.69253C7.95611 4.80961 7.89131 4.96654 7.88527 5.13198C7.87923 5.29742 7.93241 5.45918 8.03416 5.58493L10.1273 7.7542H1.12112C0.956387 7.7542 0.798403 7.82346 0.681921 7.94674C0.565439 8.07002 0.5 8.23722 0.5 8.41156C0.5 8.5859 0.565439 8.7531 0.681921 8.87638C0.798403 8.99965 0.956387 9.06891 1.12112 9.06891H10.1273L8.02795 11.3434Z" fill="white"/>
</svg>
