<svg width="61" height="61" viewBox="0 0 61 61" fill="none" xmlns="http://www.w3.org/2000/svg">
<g clip-path="url(#clip0_154_232)">
<g clip-path="url(#clip1_154_232)">
<path d="M46.8942 21.9108C43.7559 18.7079 39.5224 15.5888 34.828 13.4987C30.1337 11.4086 25.0955 10.2857 20.5121 10.1122C20.1064 10.0999 19.3191 10.1376 19.2528 10.7611L19.1753 12.8409C19.2008 13.5711 19.5425 13.7232 20.0099 13.9313C20.1409 13.9896 20.3563 13.9979 20.6135 14.009C24.9796 14.2204 29.2688 15.2379 33.2646 17.0101C37.4169 18.8589 41.28 21.6307 43.963 24.4031C44.1801 24.6224 44.301 24.7446 44.4246 24.7997C44.906 25.014 45.1126 25.298 45.7858 24.6957L47.2848 23.2523C47.6272 22.8789 47.2722 22.2983 46.8942 21.9108Z" stroke="#FF7622" stroke-width="2.5625" stroke-miterlimit="10"/>
<path d="M42.2464 26.2205C39.4683 23.3269 36.1736 21.1429 32.2459 19.3942C28.3182 17.6455 24.191 16.5969 20.4841 16.4962C19.7855 16.4745 19.0746 16.6576 19.1123 17.5948C19.1425 18.3559 19.2814 38.0782 19.504 45.1898C19.5112 45.4299 19.586 45.6631 19.7199 45.8626C19.8538 46.0621 20.0412 46.2197 20.2606 46.3174C20.4801 46.4151 20.7227 46.4489 20.9605 46.4149C21.1983 46.3809 21.4217 46.2805 21.605 46.1252L42.3122 27.9766C42.7703 27.5757 42.8796 26.8793 42.2464 26.2205Z" stroke="#FF7622" stroke-width="2.5625" stroke-miterlimit="10"/>
<path d="M23.9602 25.3083C25.2531 25.8839 26.8009 25.2282 27.4173 23.8436C28.0338 22.4591 27.4854 20.8701 26.1925 20.2945C24.8996 19.7188 23.3518 20.3746 22.7354 21.7591C22.119 23.1437 22.6673 24.7327 23.9602 25.3083Z" fill="#FF7622"/>
<path d="M32.7659 30.7304C34.0588 31.3061 35.6066 30.6503 36.223 29.2658C36.8394 27.8812 36.2911 26.2922 34.9982 25.7166C33.7053 25.141 32.1575 25.7967 31.5411 27.1812C30.9246 28.5658 31.473 30.1548 32.7659 30.7304Z" fill="#FF7622"/>
<path d="M24.178 37.4209C25.4709 37.9965 27.0187 37.3407 27.6351 35.9562C28.2515 34.5717 27.7032 32.9826 26.4103 32.407C25.1174 31.8314 23.5696 32.4871 22.9532 33.8717C22.3367 35.2562 22.8851 36.8452 24.178 37.4209Z" fill="#FF7622"/>
</g>
</g>
<defs>
<clipPath id="clip0_154_232">
<rect width="47" height="47" fill="white" transform="translate(16.4546 0.379639) rotate(20)"/>
</clipPath>
<clipPath id="clip1_154_232">
<rect width="41" height="43.9067" fill="white" transform="translate(17.7275 1.50635) rotate(24)"/>
</clipPath>
</defs>
</svg>
